# xmcd
#
# Track frame offsets: 
#        150
#        28112
#        47505
#        69545
#        86347
#        114157
#        128195
#        147942
#        165462
#        201130
#
# Disc length: 3289 seconds
#
# Revision: 2
# Processed by: cddbd v1.5.2PL0 Copyright (c) Steve Scherf et al.
# Submitted via: ExactAudioCopy v1.0b3
#
DISCID=7f0cd70a
DTITLE=Tom Principato - In The Clouds
DYEAR=1995
DGENRE=Blues
TTITLE0=In The Clouds
TTITLE1=The Road To Hell
TTITLE2=It Must Have Been Some Kinda VooDoo Thing
TTITLE3=Knockin' On The Door
TTITLE4=In A Dream
TTITLE5=Come On Home
TTITLE6=In Another Dream
TTITLE7=I'm Gone
TTITLE8=Return Of The Voodoo Child
TTITLE9=Drivin' South
EXTD=
EXTT0=
EXTT1=
EXTT2=
EXTT3=
EXTT4=
EXTT5=
EXTT6=
EXTT7=
EXTT8=
EXTT9=
PLAYORDER=
